<svg width="26" height="26" viewBox="0 0 26 26" fill="none" xmlns="http://www.w3.org/2000/svg">
<path d="M11.3674 0.0127844C9.84171 0.0733913 8.34076 0.402941 6.95113 0.986282C5.56976 1.56584 4.31209 2.36888 3.23998 3.35374C2.15962 4.33481 1.3143 5.50907 0.757627 6.80833C0.176212 8.14547 -0.075322 9.58488 0.0195187 11.0205C0.118483 12.4183 0.485475 13.7857 1.10812 15.066C1.7349 16.3425 2.60496 17.5054 3.68532 18.4941C4.75743 19.4827 6.03159 20.2706 7.43359 20.8123L21.1937 25.7556C22.0638 26.0889 23.0411 26.0813 23.9029 25.7328C24.7564 25.3995 25.4203 24.7593 25.7461 23.9639C26.0966 23.1722 26.0842 22.282 25.709 21.4979C25.3461 20.6949 24.6327 20.0699 23.7462 19.7744L19.4495 18.2327C20.2247 17.8123 20.9175 17.2744 21.4947 16.638C22.0143 16.0585 22.4308 15.4069 22.7318 14.7062C23.3215 13.3463 23.6019 11.8879 23.5565 10.422C23.507 9.03185 23.1606 7.66819 22.538 6.40302C21.9071 5.14164 21.0205 4.00147 19.9319 3.03934C18.8021 2.03554 17.462 1.24765 15.994 0.728703C14.526 0.194605 12.9467 -0.0516097 11.3674 0.00899715V0.0127844ZM16.2496 12.2554C16.2373 12.2857 16.2249 12.3122 16.2125 12.3425L16.2043 12.3576C15.9734 12.9031 15.6311 13.4069 15.1899 13.8312C14.3322 14.6645 13.1446 15.1418 11.8952 15.1531C11.2396 15.1607 10.5881 15.0509 9.98192 14.8274C9.38401 14.6153 8.8397 14.2971 8.37375 13.888C7.92428 13.4978 7.56554 13.0281 7.31813 12.5092C7.07072 11.9902 6.93876 11.4296 6.93464 10.8652C6.92639 10.2781 7.04185 9.69852 7.27689 9.15306C7.50368 8.6076 7.84594 8.11138 8.28715 7.6947C8.71188 7.29697 9.21494 6.975 9.77162 6.75151C10.3407 6.52424 10.9551 6.39545 11.5736 6.37651C12.2169 6.34999 12.856 6.45226 13.4539 6.66818C15.9033 7.50531 17.1527 10.0091 16.2455 12.2592L16.2496 12.2554Z" fill="white"/>
</svg>
